<?xml version="1.0" encoding="utf-8"?>
<!-- Generator: Adobe Illustrator 27.3.1, SVG Export Plug-In . SVG Version: 6.00 Build 0)  -->
<svg version="1.1" id="Layer_1" xmlns="http://www.w3.org/2000/svg" xmlns:xlink="http://www.w3.org/1999/xlink" x="0px" y="0px"
	 viewBox="0 0 606.6 300" style="enable-background:new 0 0 606.6 300;" xml:space="preserve">
<style type="text/css">
	.st0{fill:#454546;}
	.st1{fill:#075BA6;}
	.st2{fill:#F04D23;}
</style>
<g>
	<g>
		<path class="st0" d="M289.3,256.9v-36.5h7.3v36.5H289.3z"/>
		<path class="st0" d="M306.1,256.9v-36.5h6.5l22.6,26.9v-26.9h7.3v36.5H336L313.5,230v26.8h-7.4V256.9z"/>
		<path class="st0" d="M351.9,256.9v-36.5h29.4v4.8h-22.1v11.1h19.6v4.8h-19.6V257h-7.3V256.9z"/>
		<path class="st0" d="M411.4,257.4c-6.8,0-12-1.5-15.4-4.6s-5.1-7.8-5.1-14.2c0-6.7,1.7-11.5,5.1-14.5s8.5-4.5,15.4-4.5
			s12,1.5,15.4,4.5s5.1,7.8,5.1,14.5c0,6.4-1.7,11.1-5.1,14.2S418.3,257.4,411.4,257.4z M411.4,252.2c4.5,0,7.9-1.1,10-3.1
			c2.1-2.1,3.2-5.6,3.2-10.4c0-5.1-1.1-8.6-3.2-10.6s-5.5-3-10-3s-7.8,1-9.9,3s-3.2,5.6-3.2,10.6c0,4.8,1.1,8.3,3.2,10.4
			C403.6,251.2,406.9,252.2,411.4,252.2z"/>
		<path class="st0" d="M455.8,257.4c-5.6,0-10.1-0.6-13.5-1.8v-5.4c1.9,0.6,4,1.1,6.2,1.5s4.4,0.6,6.6,0.6c3.4,0,6-0.3,7.8-1
			c1.7-0.7,2.6-2,2.6-4.1c0-1.2-0.4-2.2-1.1-3s-1.9-1.4-3.6-2c-1.7-0.5-3.9-1.1-6.8-1.7c-4.7-1-7.9-2.3-9.8-3.9
			c-1.9-1.6-2.8-3.7-2.8-6.5c0-3.2,1.4-5.7,4.2-7.5c2.8-1.8,6.9-2.7,12.4-2.7c2.5,0,4.9,0.2,7.1,0.5s4,0.6,5.2,1v5.4
			c-3.4-1.1-7.2-1.6-11.3-1.6c-3.2,0-5.7,0.4-7.5,1.1c-1.8,0.7-2.7,2-2.7,3.9c0,1.1,0.3,2,0.9,2.7s1.7,1.3,3.3,1.8
			c1.5,0.5,3.7,1,6.4,1.6c3.5,0.8,6.3,1.7,8.2,2.7c2,1,3.3,2.2,4.1,3.6c0.8,1.4,1.2,2.9,1.2,4.7c0,3.2-1.4,5.7-4.2,7.6
			C465.8,256.5,461.6,257.4,455.8,257.4z"/>
		<path class="st0" d="M482.4,256.9v-36.5h30.2v4.8h-22.8v11.1h20.4v4.8h-20.4v11.1h22.8v4.8h-30.2L482.4,256.9L482.4,256.9z"/>
		<path class="st0" d="M522.1,256.9v-36.5H542c4.8,0,8.4,1,10.6,3.1c2.2,2.1,3.3,4.9,3.3,8.5c0,2.6-0.8,4.8-2.3,6.6
			s-3.7,3.1-6.6,3.8c0.8,0.5,1.4,1,1.9,1.6c0.4,0.6,0.9,1.3,1.3,2.3l5.4,10.6h-7.5l-5.3-10.2c-0.5-1-1.1-1.7-1.8-2.1
			c-0.7-0.4-1.9-0.6-3.5-0.6h-8.1v12.9L522.1,256.9L522.1,256.9z M529.5,238.9h10.6c2.6,0,4.7-0.6,6.2-1.6c1.5-1.1,2.3-2.9,2.3-5.3
			c0-4.6-2.6-6.9-7.9-6.9h-11.3v13.8H529.5z"/>
		<path class="st0" d="M582,256.9l-16.5-36.5h7.6l13,29.9l13-29.9h7.6l-16.4,36.5H582z"/>
	</g>
	<g>
		<path class="st0" d="M220,197.1c-14.3,0-25.2-4-32.7-12s-11.2-19.1-11.2-33.3c0-14.9,3.7-26.4,11-34.5s18.3-12.2,32.8-12.2
			c5,0,9.5,0.4,13.4,1.2c3.9,0.8,7.7,1.9,11.4,3.3v19.5c-7.4-3.3-15.1-5-23.2-5c-8.5,0-14.7,2.2-18.6,6.7
			c-3.9,4.4-5.9,11.4-5.9,20.9c0,9.1,2.1,15.7,6.2,19.9c4.1,4.2,10.3,6.4,18.5,6.4c4,0,7.9-0.4,11.8-1.2c3.9-0.8,7.7-2,11.3-3.7V193
			c-3.6,1.3-7.3,2.3-11.3,3C229.5,196.8,225,197.1,220,197.1z"/>
		<path class="st0" d="M250.7,195.7v-89.2h40.9c9.6,0,16.8,2.8,21.3,8.3c4.6,5.5,6.9,13,6.9,22.3c0,6-1.4,11.3-4.2,15.8
			c-2.8,4.5-6.6,7.9-11.4,10.1c1.2,1,2.1,2.1,2.9,3.4c0.7,1.2,1.5,3,2.3,5.2l9.6,24.1h-21.3l-9.1-22.7c-0.8-1.9-1.7-3.3-2.9-4.2
			c-1.2-0.9-2.9-1.3-5.1-1.3h-9.4v28.3h-20.5L250.7,195.7L250.7,195.7z M271.1,150.3h15.1c4,0,7.1-1.1,9.3-3.3
			c2.2-2.2,3.4-5.5,3.4-9.9c0-9-3.9-13.4-11.8-13.4h-16V150.3z"/>
		<path class="st0" d="M325.6,195.7v-89.2h60.3v17.2H346v18.7h35.1v17.5H346v18.7h39.8v17.2L325.6,195.7L325.6,195.7z"/>
		<path class="st0" d="M420.3,197.1c-5.4,0-10.5-0.4-15.2-1.3c-4.7-0.9-8.7-2.1-12.1-3.8v-19c3.7,1.8,7.8,3.2,12.4,4.3
			c4.5,1.1,8.8,1.7,12.9,1.7c5.1,0,8.9-0.5,11.4-1.5s3.7-3.2,3.7-6.7c0-2.3-0.6-4.2-1.8-5.5c-1.2-1.4-3.2-2.6-6-3.7
			c-2.8-1.1-6.5-2.3-11.2-3.8c-5.6-1.8-10-3.9-13.3-6.2s-5.7-5-7.1-8.2s-2.2-7.2-2.2-11.9c0-8.5,2.8-15,8.4-19.5s13.8-6.8,24.7-6.8
			c4.7,0,9.3,0.4,13.8,1.2c4.5,0.8,8.1,1.7,10.9,2.7v19.1c-3.6-1.6-7.3-2.7-11-3.5c-3.7-0.7-7.3-1.1-10.7-1.1
			c-4.6,0-8.3,0.5-11.1,1.4c-2.8,0.9-4.3,3-4.3,6.4c0,1.9,0.5,3.5,1.5,4.6c1,1.2,2.8,2.2,5.3,3.1c2.5,0.9,5.9,2,10.2,3.3
			c6.7,1.9,11.8,4.3,15.4,7s6,5.9,7.4,9.4c1.4,3.6,2,7.5,2,12c0,7.9-2.8,14.2-8.4,19C440.3,194.7,431.8,197.1,420.3,197.1z"/>
		<path class="st0" d="M500.9,197.1c-13.3,0-23.4-3.7-30.3-11.1c-6.9-7.4-10.4-18.9-10.4-34.5c0-16.5,3.5-28.4,10.4-35.6
			s17-10.8,30.3-10.8c13.3,0,23.4,3.6,30.3,10.8c6.9,7.2,10.4,19.1,10.4,35.6c0,15.6-3.5,27.1-10.4,34.5S514.2,197.1,500.9,197.1z
			 M500.9,178.2c6.9,0,11.9-2.1,15-6.4c3.2-4.3,4.8-11,4.8-20.2c0-10-1.6-17-4.8-21.1c-3.2-4.1-8.2-6.2-15-6.2
			c-6.9,0-12,2.1-15.2,6.2c-3.2,4.1-4.8,11.2-4.8,21.1c0,9.1,1.6,15.9,4.8,20.2C488.9,176,494,178.2,500.9,178.2z"/>
		<path class="st0" d="M547.5,195.7v-89.2H568v72h38.6v17.2H547.5z"/>
	</g>
	<path class="st1" d="M150,300h11.2v-80.2H150c-38.6,0-69.8-31.2-69.8-69.8s31.2-69.8,69.8-69.8h11.1V0H150
		C97.1,0,50.5,27.4,24,68.8C8.7,92.1,0,120.1,0,150s8.7,57.9,24,81.2C50.5,272.6,97.1,300,150,300z"/>
	<path class="st2" d="M271.8,80.2V0h-15.4c-44.3,0-80.2,35.9-80.2,80.2l0,0H271.8z"/>
	<rect x="176.1" y="219.8" class="st2" width="95.6" height="80.2"/>
</g>
</svg>
